<svg xmlns="http://www.w3.org/2000/svg" version="1.1" xlink="http://www.w3.org/1999/xlink" xmlns:svgjs="http://svgjs.com/svgjs" width="206.78839931338482" height="147"><defs id="SvgjsDefs172500"><linearGradient id="SvgjsLinearGradientV2NnzcqBJd" gradientUnits="userSpaceOnUse" x1="4.2632564145606005e-14" y1="99.99999999999997" x2="99.99999999999999" y2="-3.5527136788005e-15"><stop id="SvgjsStop172503" stop-color="#df5761" offset="0.05"/><stop id="SvgjsStop172504" stop-color="#9a1d26" offset="0.95"/></linearGradient></defs><g id="SvgjsG172501" transform="scale(0.7326686483609156)" opacity="1"><g id="SvgjsG172505" class="i0ran8gONW" transform="translate(90.3168, 7.105427357601002e-15) scale(1.0160639999999999)" light-content="false" non-strokable="false" fill="url(#SvgjsLinearGradientV2NnzcqBJd)"><path d="M24 0h76v76c0 13.255-10.745 24-24 24H0V24C0 10.745 10.745 0 24 0z"/></g><g id="SvgjsG172506" class="wk4pJsWcjn2" transform="translate(100.47744, 10.160639999999992) scale(1.3547520000000002)" light-content="true" non-strokable="false" fill="#ffffff"><path d="M37 16c-2.52 0-4.8-.97-6.24-2.65-.38-.44-1.14-.44-1.52 0C27.8 15.03 25.52 16 23 16c-.55 0-1 .45-1 1v5.66c0 4.34 3.19 8.16 7.76 9.31a.986.986 0 0 0 .48 0C34.81 30.82 38 27 38 22.66V17c0-.55-.45-1-1-1z"/><path d="M50.12 8H9.88C7.74 8 6 9.74 6 11.88v30.24C6 44.26 7.74 46 9.88 46H23v4h-4c-.55 0-1 .45-1 1s.45 1 1 1h22c.55 0 1-.45 1-1s-.45-1-1-1h-4v-4h13.12c2.14 0 3.88-1.74 3.88-3.88V11.88C54 9.74 52.26 8 50.12 8zM52 36H8V11.88C8 10.84 8.84 10 9.88 10h40.24c1.04 0 1.88.84 1.88 1.88V36z"/></g><g id="SvgjsG172507" class="text" transform="translate(141.99, 160.40639999999996) scale(1)" light-content="false" fill="#141414"><path d="M-108.87 -35.52C-111.99 -39.04 -116.73 -40.8 -123.09 -40.8C-129.37 -40.8 -134.09 -38.92 -137.25 -35.16C-140.41 -31.4 -141.99 -26.2 -141.99 -19.56C-141.99 -15.44 -141.26 -11.8 -139.8 -8.64C-138.34 -5.48 -136.19 -3.03 -133.35 -1.29C-130.51 0.45 -127.09 1.32 -123.09 1.32C-116.93 1.32 -112.24 -0.64 -109.02 -4.56C-105.8 -8.48 -104.19 -13.74 -104.19 -20.34C-104.19 -26.94 -105.75 -32 -108.87 -35.52ZM-118.95 -7.92C-119.59 -4.72 -120.97 -3.12 -123.09 -3.12C-125.21 -3.12 -126.59 -4.72 -127.23 -7.92C-127.87 -11.12 -128.19 -15.14 -128.19 -19.98C-128.19 -24.74 -127.87 -28.66 -127.23 -31.74C-126.59 -34.82 -125.21 -36.36 -123.09 -36.36C-120.97 -36.36 -119.59 -34.82 -118.95 -31.74C-118.31 -28.66 -117.99 -24.74 -117.99 -19.98C-117.99 -15.14 -118.31 -11.12 -118.95 -7.92Z M-74.91 0L-59.85 0L-59.85 -39.6L-66.69 -39.6L-66.69 -10.26L-78.93 -39.6L-93.99 -39.6L-93.99 0L-87.21 0L-87.21 -29.34Z M-35.07 -39.6L-47.91 -39.6L-47.91 0L-35.07 0Z M-10.14 -32.07C-9.52 -34.93 -8.13 -36.36 -5.97 -36.36C-4.41 -36.36 -3.35 -35.74 -2.79 -34.5C-2.23 -33.26 -1.95 -31.62 -1.95 -29.58C-1.95 -28.58 -2.07 -27.48 -2.31 -26.28C-1.55 -26.04 -0.51 -25.92 0.81 -25.92C2.93 -25.92 4.71 -26.53 6.15 -27.75C7.59 -28.97 8.31 -30.62 8.31 -32.7C8.31 -35.62 7.02 -37.7 4.44 -38.94C1.86 -40.18 -1.33 -40.8 -5.13 -40.8C-11.69 -40.8 -16.62 -38.96 -19.92 -35.28C-23.22 -31.6 -24.87 -26.36 -24.87 -19.56C-24.87 -15.52 -24.19 -11.94 -22.83 -8.82C-21.47 -5.7 -19.34 -3.23 -16.44 -1.41C-13.54 0.41 -9.89 1.32 -5.49 1.32C-3.21 1.32 -1 0.97 1.14 0.27C3.28 -0.43 5.03 -1.5 6.39 -2.94C7.75 -4.38 8.43 -6.12 8.43 -8.16C8.43 -10.12 7.65 -11.58 6.09 -12.54C4.17 -9.18 1.45 -7.5 -2.07 -7.5C-5.35 -7.5 -7.67 -8.77 -9.03 -11.31C-10.39 -13.85 -11.07 -17.38 -11.07 -21.9C-11.07 -25.82 -10.76 -29.21 -10.14 -32.07Z M52.71 -39.6L39.87 -39.6L39.87 -22.56L31.11 -22.56L31.11 -39.6L18.27 -39.6L18.27 0L31.11 0L31.11 -17.52L39.87 -17.52L39.87 0L52.71 0Z M87.03 -39.6L72.09 -39.6L61.29 0L69.09 0L71.25 -9.48L81.69 -9.48L83.91 0L97.05 0ZM72.39 -14.52L76.41 -32.28L80.55 -14.52Z M125.19 0L140.25 0L140.25 -39.6L133.41 -39.6L133.41 -10.26L121.17 -39.6L106.11 -39.6L106.11 0L112.89 0L112.89 -29.34Z"/></g><rect id="SvgjsRect172508" width="33.215" height="2" fill="#9a1d26" transform="translate(0, 188.6814) scale(1)" light-content="false"/><g id="SvgjsG172509" class="text" transform="translate(141.145, 196.00639999999999) scale(1)" light-content="false" fill="#9a1d26"><path d="M-92.06 0.13C-91.48 -0.13 -91.04 -0.54 -90.73 -1.1C-90.67 -0.66 -90.48 -0.3 -90.18 -0.04C-89.88 0.23 -89.49 0.36 -89.03 0.36C-88.71 0.36 -88.42 0.3 -88.18 0.17C-87.93 0.04 -87.74 -0.14 -87.61 -0.38C-88.11 -0.66 -88.36 -1.18 -88.36 -1.97L-88.36 -8.21C-88.36 -9.3 -88.49 -10.16 -88.75 -10.81C-89.02 -11.46 -89.45 -11.94 -90.06 -12.25C-90.67 -12.56 -91.5 -12.72 -92.56 -12.72C-94 -12.72 -95.15 -12.48 -96.01 -11.99C-96.88 -11.5 -97.31 -10.87 -97.31 -10.1C-97.31 -9.56 -97.14 -9.14 -96.8 -8.86C-96.47 -8.57 -96.01 -8.42 -95.44 -8.42C-95.02 -8.42 -94.7 -8.51 -94.48 -8.69C-94.6 -9.07 -94.67 -9.43 -94.67 -9.77C-94.67 -10.3 -94.48 -10.71 -94.12 -11C-93.75 -11.3 -93.28 -11.45 -92.72 -11.45C-92.05 -11.45 -91.6 -11.25 -91.36 -10.86C-91.12 -10.47 -91 -9.87 -91 -9.07L-91 -6.98C-95.62 -6.98 -97.93 -5.69 -97.93 -3.1C-97.93 -2.02 -97.56 -1.15 -96.82 -0.48C-96.07 0.19 -95.15 0.53 -94.04 0.53C-93.31 0.53 -92.65 0.4 -92.06 0.13ZM-91.52 -1.88C-91.88 -1.35 -92.4 -1.08 -93.11 -1.08C-93.72 -1.08 -94.19 -1.27 -94.54 -1.66C-94.88 -2.04 -95.05 -2.55 -95.05 -3.19C-95.05 -4.92 -93.7 -5.78 -91 -5.78L-91 -3.89C-91 -3.09 -91.17 -2.42 -91.52 -1.88Z M-76.67 -12.24L-79.16 -12.24L-81.61 -2.76L-83.89 -12.24L-86.63 -12.24L-83.58 -1.15L-82.38 -1.15L-84.76 4.32L-82.12 4.63Z M-66.66 -10.98C-67.52 -12.14 -68.85 -12.72 -70.64 -12.72C-72.42 -12.72 -73.74 -12.1 -74.6 -10.87C-75.47 -9.64 -75.9 -8.03 -75.9 -6.05C-75.9 -4 -75.48 -2.39 -74.64 -1.22C-73.8 -0.06 -72.47 0.53 -70.64 0.53C-68.79 0.53 -67.44 -0.08 -66.61 -1.31C-65.78 -2.53 -65.36 -4.19 -65.36 -6.29C-65.36 -8.26 -65.8 -9.82 -66.66 -10.98ZM-68.7 -2.38C-69 -1.4 -69.65 -0.91 -70.64 -0.91C-71.64 -0.91 -72.28 -1.4 -72.58 -2.38C-72.87 -3.35 -73.02 -4.62 -73.02 -6.17C-73.02 -9.58 -72.23 -11.28 -70.64 -11.28C-69.7 -11.28 -69.06 -10.78 -68.74 -9.79C-68.41 -8.8 -68.24 -7.59 -68.24 -6.17C-68.24 -4.62 -68.4 -3.35 -68.7 -2.38Z M-56.08 -14.38L-56.08 -17.09L-58.72 -16.8L-58.72 -0.6C-58.08 -0.25 -57.32 0.03 -56.45 0.23C-55.58 0.43 -54.75 0.53 -53.96 0.53C-52.14 0.53 -50.79 -0.1 -49.91 -1.34C-49.03 -2.59 -48.59 -4.24 -48.59 -6.29C-48.59 -8.14 -48.93 -9.68 -49.62 -10.9C-50.31 -12.11 -51.41 -12.72 -52.93 -12.72C-53.67 -12.72 -54.34 -12.52 -54.95 -12.13C-55.56 -11.74 -56.01 -11.21 -56.32 -10.54C-56.16 -11.35 -56.08 -12.63 -56.08 -14.38ZM-53.84 -0.91C-54.63 -0.91 -55.37 -1.15 -56.08 -1.63L-56.08 -6.24C-56.08 -7.58 -55.92 -8.69 -55.6 -9.56C-55.28 -10.44 -54.65 -10.87 -53.72 -10.87C-52.81 -10.87 -52.21 -10.43 -51.91 -9.54C-51.62 -8.65 -51.47 -7.53 -51.47 -6.17C-51.47 -4.65 -51.62 -3.39 -51.92 -2.4C-52.23 -1.41 -52.87 -0.91 -53.84 -0.91Z M-36.73 -1.97L-36.73 -12.24L-39.37 -12.24L-39.37 -3.89C-39.37 -3.09 -39.55 -2.42 -39.9 -1.88C-40.25 -1.35 -40.78 -1.08 -41.48 -1.08C-42.14 -1.08 -42.63 -1.3 -42.95 -1.75C-43.27 -2.2 -43.46 -2.74 -43.54 -3.37C-43.61 -4 -43.64 -4.81 -43.64 -5.78L-43.64 -12.24L-46.28 -12.24L-46.28 -5.66C-46.28 -4.29 -46.19 -3.16 -46 -2.29C-45.8 -1.42 -45.41 -0.73 -44.81 -0.23C-44.21 0.28 -43.33 0.53 -42.18 0.53C-41.52 0.53 -40.91 0.39 -40.34 0.11C-39.78 -0.17 -39.36 -0.58 -39.11 -1.1C-39.04 -0.66 -38.86 -0.3 -38.56 -0.04C-38.25 0.23 -37.87 0.36 -37.4 0.36C-37.08 0.36 -36.8 0.3 -36.55 0.17C-36.3 0.04 -36.12 -0.14 -35.99 -0.38C-36.48 -0.66 -36.73 -1.18 -36.73 -1.97Z M-28.3 0.13C-27.71 -0.13 -27.27 -0.54 -26.96 -1.1C-26.9 -0.66 -26.72 -0.3 -26.41 -0.04C-26.11 0.23 -25.72 0.36 -25.26 0.36C-24.94 0.36 -24.66 0.3 -24.41 0.17C-24.16 0.04 -23.97 -0.14 -23.84 -0.38C-24.34 -0.66 -24.59 -1.18 -24.59 -1.97L-24.59 -8.21C-24.59 -9.3 -24.72 -10.16 -24.98 -10.81C-25.25 -11.46 -25.68 -11.94 -26.29 -12.25C-26.9 -12.56 -27.73 -12.72 -28.79 -12.72C-30.23 -12.72 -31.38 -12.48 -32.24 -11.99C-33.11 -11.5 -33.54 -10.87 -33.54 -10.1C-33.54 -9.56 -33.37 -9.14 -33.04 -8.86C-32.7 -8.57 -32.24 -8.42 -31.67 -8.42C-31.25 -8.42 -30.93 -8.51 -30.71 -8.69C-30.84 -9.07 -30.9 -9.43 -30.9 -9.77C-30.9 -10.3 -30.72 -10.71 -30.35 -11C-29.98 -11.3 -29.52 -11.45 -28.96 -11.45C-28.28 -11.45 -27.83 -11.25 -27.59 -10.86C-27.35 -10.47 -27.23 -9.87 -27.23 -9.07L-27.23 -6.98C-31.85 -6.98 -34.16 -5.69 -34.16 -3.1C-34.16 -2.02 -33.79 -1.15 -33.05 -0.48C-32.3 0.19 -31.38 0.53 -30.28 0.53C-29.54 0.53 -28.88 0.4 -28.3 0.13ZM-27.76 -1.88C-28.11 -1.35 -28.64 -1.08 -29.34 -1.08C-29.95 -1.08 -30.42 -1.27 -30.77 -1.66C-31.11 -2.04 -31.28 -2.55 -31.28 -3.19C-31.28 -4.92 -29.93 -5.78 -27.23 -5.78L-27.23 -3.89C-27.23 -3.09 -27.4 -2.42 -27.76 -1.88Z M-22.93 -11.16L-21.23 -11.16L-21.23 -1.85C-21.23 -0.38 -20.58 0.36 -19.28 0.36C-18.84 0.36 -18.44 0.24 -18.1 0.01C-17.75 -0.22 -17.54 -0.52 -17.46 -0.89C-17.84 -0.95 -18.12 -1.1 -18.3 -1.34C-18.48 -1.58 -18.56 -1.94 -18.56 -2.42L-18.56 -11.16L-16.31 -11.16L-16.31 -12.24L-18.52 -12.24L-18.52 -14.62L-19.26 -14.62C-19.71 -14.04 -20.26 -13.51 -20.9 -13.03C-21.55 -12.55 -22.24 -12.17 -22.96 -11.88Z M-5.26 0.13C-4.67 -0.13 -4.23 -0.54 -3.92 -1.1C-3.86 -0.66 -3.68 -0.3 -3.37 -0.04C-3.07 0.23 -2.68 0.36 -2.22 0.36C-1.9 0.36 -1.62 0.3 -1.37 0.17C-1.12 0.04 -0.93 -0.14 -0.8 -0.38C-1.3 -0.66 -1.55 -1.18 -1.55 -1.97L-1.55 -8.21C-1.55 -9.3 -1.68 -10.16 -1.94 -10.81C-2.21 -11.46 -2.64 -11.94 -3.25 -12.25C-3.86 -12.56 -4.69 -12.72 -5.75 -12.72C-7.19 -12.72 -8.34 -12.48 -9.2 -11.99C-10.07 -11.5 -10.5 -10.87 -10.5 -10.1C-10.5 -9.56 -10.33 -9.14 -10 -8.86C-9.66 -8.57 -9.2 -8.42 -8.63 -8.42C-8.21 -8.42 -7.89 -8.51 -7.67 -8.69C-7.8 -9.07 -7.86 -9.43 -7.86 -9.77C-7.86 -10.3 -7.68 -10.71 -7.31 -11C-6.94 -11.3 -6.48 -11.45 -5.92 -11.45C-5.24 -11.45 -4.79 -11.25 -4.55 -10.86C-4.31 -10.47 -4.19 -9.87 -4.19 -9.07L-4.19 -6.98C-8.81 -6.98 -11.12 -5.69 -11.12 -3.1C-11.12 -2.02 -10.75 -1.15 -10.01 -0.48C-9.26 0.19 -8.34 0.53 -7.24 0.53C-6.5 0.53 -5.84 0.4 -5.26 0.13ZM-4.72 -1.88C-5.07 -1.35 -5.6 -1.08 -6.3 -1.08C-6.91 -1.08 -7.38 -1.27 -7.73 -1.66C-8.07 -2.04 -8.24 -2.55 -8.24 -3.19C-8.24 -4.92 -6.89 -5.78 -4.19 -5.78L-4.19 -3.89C-4.19 -3.09 -4.36 -2.42 -4.72 -1.88Z M1.67 0L4.31 0L4.31 -17.09L1.67 -16.8ZM8.65 -12.24L4.64 -6.72L8.46 0L11.53 0L7.28 -7.15L11.44 -12.24Z M22.52 -1.97L22.52 -12.24L19.88 -12.24L19.88 -3.89C19.88 -3.09 19.71 -2.42 19.36 -1.88C19 -1.35 18.48 -1.08 17.77 -1.08C17.12 -1.08 16.63 -1.3 16.31 -1.75C15.99 -2.2 15.79 -2.74 15.72 -3.37C15.65 -4 15.61 -4.81 15.61 -5.78L15.61 -12.24L12.97 -12.24L12.97 -5.66C12.97 -4.29 13.07 -3.16 13.26 -2.29C13.45 -1.42 13.85 -0.73 14.45 -0.23C15.05 0.28 15.92 0.53 17.08 0.53C17.73 0.53 18.34 0.39 18.91 0.11C19.48 -0.17 19.89 -0.58 20.15 -1.1C20.21 -0.66 20.4 -0.3 20.7 -0.04C21 0.23 21.39 0.36 21.85 0.36C22.17 0.36 22.46 0.3 22.7 0.17C22.95 0.04 23.14 -0.14 23.27 -0.38C22.77 -0.66 22.52 -1.18 22.52 -1.97Z M25.79 -12.24L25.79 0L28.43 0L28.43 -6.24C28.43 -7.6 28.59 -8.71 28.92 -9.58C29.25 -10.44 29.9 -10.87 30.88 -10.87C31.64 -10.87 32.14 -10.62 32.36 -10.13C32.59 -9.63 32.7 -8.88 32.7 -7.87L32.7 -1.66C32.7 -1.02 32.85 -0.52 33.16 -0.17C33.46 0.18 33.92 0.36 34.55 0.36C34.87 0.36 35.17 0.3 35.46 0.17C35.75 0.04 35.96 -0.14 36.08 -0.38C35.59 -0.66 35.34 -1.18 35.34 -1.97L35.34 -8.21C35.34 -9.73 35.08 -10.86 34.55 -11.6C34.02 -12.35 33.08 -12.72 31.74 -12.72C30.89 -12.72 30.15 -12.52 29.52 -12.12C28.89 -11.72 28.42 -11.14 28.12 -10.37L28 -12.53Z M52.69 -0.38C52.2 -0.66 51.95 -1.18 51.95 -1.97L51.95 -17.09L49.31 -16.8L49.31 -12.41C48.68 -12.62 47.99 -12.72 47.22 -12.72C45.38 -12.72 44.02 -12.13 43.15 -10.94C42.28 -9.76 41.84 -8.16 41.84 -6.14C41.84 -4.19 42.21 -2.59 42.95 -1.34C43.68 -0.1 44.87 0.53 46.5 0.53C47.16 0.53 47.77 0.39 48.34 0.11C48.9 -0.17 49.32 -0.58 49.57 -1.1C49.64 -0.66 49.82 -0.3 50.12 -0.04C50.43 0.23 50.81 0.36 51.28 0.36C51.6 0.36 51.88 0.3 52.13 0.17C52.38 0.04 52.56 -0.14 52.69 -0.38ZM47.1 -11.28C47.84 -11.28 48.57 -11.03 49.31 -10.54L49.31 -3.89C49.31 -3.09 49.13 -2.42 48.78 -1.88C48.43 -1.35 47.9 -1.08 47.2 -1.08C46.25 -1.08 45.6 -1.59 45.25 -2.6C44.9 -3.62 44.72 -4.84 44.72 -6.26C44.72 -7.75 44.88 -8.96 45.18 -9.89C45.48 -10.82 46.12 -11.28 47.1 -11.28Z M57.94 -16.9C57.61 -17.15 57.18 -17.28 56.65 -17.28C56.12 -17.28 55.69 -17.15 55.34 -16.88C55 -16.62 54.83 -16.24 54.83 -15.74C54.83 -15.26 54.99 -14.9 55.31 -14.64C55.63 -14.38 56.05 -14.26 56.58 -14.26C57.12 -14.26 57.57 -14.39 57.91 -14.65C58.26 -14.92 58.43 -15.3 58.43 -15.79C58.43 -16.27 58.26 -16.64 57.94 -16.9ZM57.9 -1.97L57.9 -12.24L55.26 -12.24L55.26 -1.66C55.26 -1.02 55.41 -0.52 55.72 -0.17C56.02 0.18 56.48 0.36 57.08 0.36C57.42 0.36 57.73 0.3 58.02 0.17C58.31 0.04 58.52 -0.14 58.64 -0.38C58.15 -0.66 57.9 -1.18 57.9 -1.97Z M68.1 -11.08C68.39 -11.32 68.77 -11.45 69.25 -11.45C69.76 -11.45 70.15 -11.3 70.42 -11C70.68 -10.71 70.81 -10.3 70.81 -9.77C70.81 -9.43 70.75 -9.07 70.62 -8.69C70.84 -8.51 71.16 -8.42 71.58 -8.42C72.16 -8.42 72.62 -8.57 72.96 -8.86C73.3 -9.14 73.48 -9.56 73.48 -10.1C73.48 -11.03 73.11 -11.7 72.38 -12.11C71.66 -12.52 70.72 -12.72 69.59 -12.72C68.36 -12.72 67.31 -12.43 66.44 -11.84C65.58 -11.26 65.15 -10.43 65.15 -9.36C65.15 -8.69 65.3 -8.12 65.6 -7.64C65.91 -7.17 66.27 -6.78 66.7 -6.48C67.12 -6.18 67.68 -5.82 68.39 -5.42C69.27 -4.94 69.92 -4.51 70.34 -4.12C70.77 -3.72 70.98 -3.22 70.98 -2.59C70.98 -1.98 70.82 -1.52 70.51 -1.21C70.2 -0.9 69.75 -0.74 69.16 -0.74C68.61 -0.74 68.18 -0.89 67.86 -1.19C67.54 -1.48 67.38 -1.89 67.38 -2.4C67.38 -2.74 67.44 -3.1 67.57 -3.48C67.35 -3.66 67.03 -3.74 66.61 -3.74C66.04 -3.74 65.58 -3.6 65.24 -3.31C64.91 -3.02 64.74 -2.61 64.74 -2.06C64.74 -1.14 65.14 -0.47 65.93 -0.07C66.72 0.33 67.7 0.53 68.87 0.53C70.21 0.53 71.32 0.2 72.19 -0.46C73.06 -1.11 73.5 -2.05 73.5 -3.26C73.5 -3.94 73.35 -4.51 73.04 -4.98C72.74 -5.45 72.38 -5.84 71.95 -6.14C71.53 -6.45 70.96 -6.79 70.26 -7.18C69.38 -7.66 68.73 -8.09 68.3 -8.48C67.88 -8.88 67.67 -9.38 67.67 -10.01C67.67 -10.47 67.81 -10.83 68.1 -11.08Z M78.65 -16.9C78.32 -17.15 77.89 -17.28 77.36 -17.28C76.84 -17.28 76.4 -17.15 76.06 -16.88C75.71 -16.62 75.54 -16.24 75.54 -15.74C75.54 -15.26 75.7 -14.9 76.02 -14.64C76.34 -14.38 76.76 -14.26 77.29 -14.26C77.84 -14.26 78.28 -14.39 78.62 -14.65C78.97 -14.92 79.14 -15.3 79.14 -15.79C79.14 -16.27 78.98 -16.64 78.65 -16.9ZM78.61 -1.97L78.61 -12.24L75.97 -12.24L75.97 -1.66C75.97 -1.02 76.12 -0.52 76.43 -0.17C76.73 0.18 77.19 0.36 77.8 0.36C78.13 0.36 78.44 0.3 78.73 0.17C79.02 0.04 79.23 -0.14 79.36 -0.38C78.86 -0.66 78.61 -1.18 78.61 -1.97Z M81.88 -12.24L81.88 0L84.52 0L84.52 -6.24C84.52 -7.6 84.68 -8.71 85.01 -9.58C85.34 -10.44 85.99 -10.87 86.96 -10.87C87.73 -10.87 88.23 -10.62 88.45 -10.13C88.68 -9.63 88.79 -8.88 88.79 -7.87L88.79 -1.66C88.79 -1.02 88.94 -0.52 89.24 -0.17C89.55 0.18 90.01 0.36 90.64 0.36C90.96 0.36 91.26 0.3 91.55 0.17C91.84 0.04 92.04 -0.14 92.17 -0.38C91.68 -0.66 91.43 -1.18 91.43 -1.97L91.43 -8.21C91.43 -9.73 91.16 -10.86 90.64 -11.6C90.11 -12.35 89.17 -12.72 87.83 -12.72C86.98 -12.72 86.24 -12.52 85.61 -12.12C84.98 -11.72 84.51 -11.14 84.2 -10.37L84.08 -12.53Z M97.18 -16.9C96.85 -17.15 96.42 -17.28 95.89 -17.28C95.36 -17.28 94.93 -17.15 94.58 -16.88C94.24 -16.62 94.07 -16.24 94.07 -15.74C94.07 -15.26 94.23 -14.9 94.55 -14.64C94.87 -14.38 95.29 -14.26 95.82 -14.26C96.36 -14.26 96.81 -14.39 97.15 -14.65C97.5 -14.92 97.67 -15.3 97.67 -15.79C97.67 -16.27 97.5 -16.64 97.18 -16.9ZM97.14 -1.97L97.14 -12.24L94.5 -12.24L94.5 -1.66C94.5 -1.02 94.65 -0.52 94.96 -0.17C95.26 0.18 95.72 0.36 96.32 0.36C96.66 0.36 96.97 0.3 97.26 0.17C97.55 0.04 97.76 -0.14 97.88 -0.38C97.39 -0.66 97.14 -1.18 97.14 -1.97Z"/></g><rect id="SvgjsRect172510" width="33.215" height="2" fill="#9a1d26" transform="translate(249.025, 188.6814) scale(1)" light-content="false"/></g></svg>